<?xml version="1.0" encoding="UTF-8" standalone="no"?>
<!-- Created with Inkscape (http://www.inkscape.org/) -->

<svg
   width="297mm"
   height="100mm"
   viewBox="0 0 297 100"
   version="1.1"
   id="svg1"
   xml:space="preserve"
   inkscape:version="1.4 (e7c3feb100, 2024-10-09)"
   sodipodi:docname="logo_sudouest.svg"
   xmlns:inkscape="http://www.inkscape.org/namespaces/inkscape"
   xmlns:sodipodi="http://sodipodi.sourceforge.net/DTD/sodipodi-0.dtd"
   xmlns="http://www.w3.org/2000/svg"
   xmlns:svg="http://www.w3.org/2000/svg"><sodipodi:namedview
     id="namedview1"
     pagecolor="#ffffff"
     bordercolor="#000000"
     borderopacity="0.25"
     inkscape:showpageshadow="2"
     inkscape:pageopacity="0.0"
     inkscape:pagecheckerboard="0"
     inkscape:deskcolor="#d1d1d1"
     inkscape:document-units="mm"
     showguides="true"
     inkscape:zoom="0.67030152"
     inkscape:cx="663.88034"
     inkscape:cy="261.07654"
     inkscape:window-width="1920"
     inkscape:window-height="1011"
     inkscape:window-x="0"
     inkscape:window-y="0"
     inkscape:window-maximized="1"
     inkscape:current-layer="layer1" /><defs
     id="defs1" /><g
     inkscape:label="Calque 1"
     inkscape:groupmode="layer"
     id="layer1"><g
       id="g49"
       style="display:inline"
       inkscape:label="Logo FR IGP"
       transform="matrix(1.9131425,0,0,1.9131425,-25.684513,-66.206384)"><g
         id="g51"
         transform="translate(2.1166667)"
         inkscape:label="FRIGP SO"><text
           xml:space="preserve"
           style="font-weight:bold;font-size:16.381px;line-height:0px;font-family:'Bitstream Vera Sans';-inkscape-font-specification:'Bitstream Vera Sans, Bold';text-align:center;writing-mode:lr-tb;direction:ltr;text-anchor:middle;fill:#000000;fill-opacity:1;stroke-width:2.0247"
           x="104.37776"
           y="84.04554"
           id="text5"
           transform="scale(1.0188635,0.98148574)"
           inkscape:label="SUD-OUEST"><tspan
             sodipodi:role="line"
             id="tspan5"
             style="fill:#000000;stroke-width:2.0247"
             x="104.37776"
             y="84.04554">SUD-OUEST</tspan></text><text
           xml:space="preserve"
           style="font-weight:bold;font-size:35.2592px;line-height:0px;font-family:'Bitstream Vera Sans';-inkscape-font-specification:'Bitstream Vera Sans, Bold';text-align:center;writing-mode:lr-tb;direction:ltr;text-anchor:middle;fill:#000000;fill-opacity:1;stroke-width:4.35806"
           x="77.881187"
           y="63.843445"
           id="text6"
           transform="scale(0.96304098,1.0383774)"
           inkscape:label="FR"><tspan
             sodipodi:role="line"
             id="tspan6"
             style="fill:#000000;stroke-width:4.35806"
             x="77.881187"
             y="63.843445">FR</tspan></text><text
           xml:space="preserve"
           style="font-weight:bold;font-size:35.2592px;line-height:0px;font-family:'Bitstream Vera Sans';-inkscape-font-specification:'Bitstream Vera Sans, Bold';text-align:center;writing-mode:lr-tb;direction:ltr;text-anchor:middle;fill:#a21f66;fill-opacity:1;stroke-width:4.35806"
           x="134.96724"
           y="63.826229"
           id="text6-8"
           transform="scale(0.96304099,1.0383774)"
           inkscape:label="IGP"><tspan
             sodipodi:role="line"
             id="tspan6-9"
             style="stroke-width:4.35806"
             x="134.96724"
             y="63.826229">IGP</tspan></text></g><g
         id="g50"
         transform="matrix(1.0785479,0,0,1.182719,-0.23121853,-7.2661007)"
         inkscape:label="Grappe"><path
           d="m 40.7448,53.371419 a 4.4648762,4.4132109 0 0 1 0.171049,1.204578 4.4648762,4.4132109 0 0 1 -0.153479,1.082104 c 0.475754,1.414922 1.775144,2.432527 3.307808,2.43241 1.935017,-1.46e-4 3.5036,-1.619396 3.503662,-3.616833 -8.1e-5,-2.660368 -2.422012,-3.706496 -3.576009,-3.611666 -0.632273,1.243139 -1.820637,2.118756 -3.206522,2.362646 -0.01762,0.04823 -0.03092,0.09788 -0.04651,0.146761 z"
           style="display:inline;fill:#a21f66;stroke-width:0.684179"
           id="path12" /><path
           id="path6-1-3-2"
           style="display:inline;fill:#a21f66;fill-opacity:1;stroke-width:0.684179"
           d="m 36.451005,50.959163 c 1.40361,4.68e-4 -0.07958,0.0031 0,0 z m 3.222026,2.198316 c -1.443085,-0.12888 -2.733161,-0.941921 -3.460254,-2.180746 -1.835074,0.12894 -3.261204,1.700617 -3.265951,3.599264 6.2e-5,1.997645 1.56896,3.616981 3.504179,3.616833 1.935017,-1.46e-4 3.5036,-1.619396 3.503662,-3.616833 -2.92e-4,-0.487602 -0.09609,-0.970108 -0.281636,-1.418518 z"
           sodipodi:nodetypes="ccccsccc" /><ellipse
           style="display:inline;fill:#a21f66;fill-opacity:1;stroke-width:0.548701"
           id="path6"
           cx="40.069004"
           cy="48.772293"
           rx="3.5039186"
           ry="3.6169481" /><path
           d="m 40.041484,57.174288 a 4.4648762,4.4132109 0 0 1 -2.55695,1.681034 3.5039186,3.6169481 0 0 0 -0.540536,1.888257 3.5039186,3.6169481 0 0 0 3.503662,3.616834 3.5039186,3.6169481 0 0 0 3.504179,-3.616834 3.5039186,3.6169481 0 0 0 -0.532784,-1.913061 4.4648762,4.4132109 0 0 1 -2.897497,-1.701189 3.5039186,3.6169481 0 0 0 -0.0739,-0.0026 3.5039186,3.6169481 0 0 0 -0.406176,0.04754 z"
           style="display:inline;fill:#a21f66;stroke-width:0.548701"
           id="path14" /><path
           d="m 32.252295,56.025004 a 4.4648762,4.4132109 0 0 1 -0.26665,-1.449007 4.4648762,4.4132109 0 0 1 0.15968,-1.101742 3.5039186,3.6169481 0 0 0 -3.20859,-2.168343 3.5039186,3.6169481 0 0 0 -3.503662,3.616834 3.5039186,3.6169481 0 0 0 3.503662,3.616833 3.5039186,3.6169481 0 0 0 3.31556,-2.514575 z"
           style="display:inline;fill:#a21f66;stroke-width:0.548701"
           id="path18" /><path
           id="path33"
           style="display:inline;fill:#a21f66;stroke-width:0.548701"
           d="m 32.993335,57.571163 a 3.5039186,3.6169481 0 0 0 -0.642855,0.06511 3.5039186,3.6169481 0 0 0 -2.238623,1.501717 3.5039186,3.6169481 0 0 0 -0.622701,2.050004 3.5039186,3.6169481 0 0 0 3.504179,3.616834 3.5039186,3.6169481 0 0 0 1.200443,-0.231511 3.5039186,3.6169481 0 0 0 1.608688,-1.245402 3.5039186,3.6169481 0 0 0 0.494027,-0.980818 4.4648762,4.4132109 0 0 1 -0.313676,-1.60352 4.4648762,4.4132109 0 0 1 0.160713,-1.107943 3.5039186,3.6169481 0 0 0 -0.425297,-0.717785 4.4648762,4.4132109 0 0 1 -2.522326,-1.338937 3.5039186,3.6169481 0 0 0 -0.202572,-0.0078 z m -0.98547,0.444417 a 4.4648762,4.4132109 0 0 1 -0.03617,0.03721 4.4648762,4.4132109 0 0 0 0.03617,-0.03721 z m -0.401009,0.353467 a 4.4648762,4.4132109 0 0 1 -0.06666,0.05168 4.4648762,4.4132109 0 0 0 0.06666,-0.05168 z m -0.45837,0.314193 a 4.4648762,4.4132109 0 0 1 -0.07493,0.04289 4.4648762,4.4132109 0 0 0 0.07493,-0.04289 z m -0.499711,0.258382 a 4.4648762,4.4132109 0 0 1 -0.06408,0.02584 4.4648762,4.4132109 0 0 0 0.06408,-0.02584 z" /><path
           d="m 36.818941,63.26849 a 4.4648762,4.4132109 0 0 1 -3.112471,2.255676 3.5039186,3.6169481 0 0 0 -0.207223,1.189591 3.5039186,3.6169481 0 0 0 3.503662,3.616834 3.5039186,3.6169481 0 0 0 3.504179,-3.616834 3.5039186,3.6169481 0 0 0 -0.355534,-1.582849 4.4648762,4.4132109 0 0 1 -3.332613,-1.862418 z"
           style="display:inline;fill:#a21f66;stroke-width:0.548701"
           id="path39" /><path
           d="m 33.21451,69.035579 a 4.4648762,4.4132109 0 0 1 -3.474723,2.172478 3.5039186,3.6169481 0 0 0 -0.05788,0.622701 3.5039186,3.6169481 0 0 0 3.503662,3.616833 3.5039186,3.6169481 0 0 0 3.504179,-3.616833 3.5039186,3.6169481 0 0 0 -0.0708,-0.72192 4.4648762,4.4132109 0 0 1 -3.404443,-2.073259 z"
           style="display:inline;fill:#a21f66;stroke-width:0.548701"
           id="path28" /><path
           d="m 28.69954,59.323511 a 4.4648762,4.4132109 0 0 1 -3.616833,-2.04432 3.5039186,3.6169481 0 0 0 -3.061312,3.571875 3.5039186,3.6169481 0 0 0 3.504179,3.61735 3.5039186,3.6169481 0 0 0 3.503662,-3.61735 3.5039186,3.6169481 0 0 0 -0.329696,-1.527555 z"
           style="display:inline;fill:#a21f66;stroke-width:0.548701"
           id="path37" /><path
           d="m 32.624365,65.577909 a 4.4648762,4.4132109 0 0 1 -3.542419,-2.104781 4.4648762,4.4132109 0 0 1 -2.846338,1.730127 3.5039186,3.6169481 0 0 0 -0.391707,1.625741 3.5039186,3.6169481 0 0 0 3.504178,3.616833 3.5039186,3.6169481 0 0 0 3.503663,-3.616833 3.5039186,3.6169481 0 0 0 -0.227377,-1.251087 z"
           style="display:inline;fill:#a21f66;stroke-width:0.548701"
           id="path41" /><path
           d="m 24.847579,39.766565 c -0.748107,0.0015 -1.456082,0.05297 -1.644861,0.153996 -0.38029,0.20353 -0.376106,0.704783 0.01085,1.339453 0.425612,0.69807 0.399602,0.751835 -0.417545,0.874365 -0.967048,0.14502 -1.9177,0.646938 -3.286622,1.734778 -1.262157,1.00299 -2.732132,2.737256 -2.732132,3.223576 0,0.49003 2.261189,2.010013 3.332613,2.240173 0.608902,0.1308 0.611606,0.190913 0.04961,1.195793 -0.981349,1.7547 -1.478847,4.15148 -1.292428,6.22701 0.07387,0.822417 0.184239,1.215457 0.400493,1.431954 0.448677,0.44868 1.432318,0.250466 3.332613,-0.671794 0.769184,-0.373311 1.402506,-0.67834 1.73116,-0.835091 a 4.8715277,4.6841612 0 0 1 -0.360184,-1.758032 4.8715277,4.6841612 0 0 1 4.871537,-4.683952 4.8715277,4.6841612 0 0 1 3.63647,1.56993 l 0.408244,-0.248564 c 0.334882,-0.203786 2.588647,-1.573788 2.648417,-1.897558 0.03289,-0.17816 0.137511,-1.110135 0.233061,-2.070675 0.254022,-2.55374 0.936214,-4.299203 2.390035,-6.117973 0.58492,-0.73175 0.659841,-1.161296 0.276469,-1.584916 -1.417159,-0.37958 -6.143543,2.848764 -8.188131,3.495394 -0.236922,-0.3199 -2.347795,-3.135979 -3.514514,-3.470589 -0.348746,-0.09984 -1.137049,-0.148731 -1.885155,-0.147278 z M 35.64692,42.29716 c 0.02641,0.003 0.03883,0.0149 0.03514,0.03669 -0.215534,1.27087 -0.874021,2.45995 -0.938961,3.59978 -0.01229,0.21567 -3.05201,-1.433565 -3.05201,-1.581815 0,-0.150853 3.559613,-2.098977 3.955831,-2.054655 z"
           style="display:inline;fill:#a21f66"
           id="path46" /></g></g></g></svg>
