<?xml version="1.0" standalone="no"?>
<!DOCTYPE svg PUBLIC "-//W3C//DTD SVG 20010904//EN"
 "http://www.w3.org/TR/2001/REC-SVG-20010904/DTD/svg10.dtd">
<svg version="1.0" xmlns="http://www.w3.org/2000/svg"
 width="150.000000pt" height="50.000000pt" viewBox="0 0 150.000000 50.000000"
 preserveAspectRatio="xMidYMid meet">
<metadata>
Created by potrace 1.16, written by Peter Selinger 2001-2019
</metadata>
<g transform="translate(0.000000,50.000000) scale(0.100000,-0.100000)"
fill="#000000" stroke="none">
<path d="M110 440 c0 -6 -15 -24 -32 -40 -30 -28 -32 -31 -16 -43 14 -11 16
-24 11 -66 -6 -51 -6 -51 18 -43 13 5 24 15 25 23 2 34 5 39 28 54 20 13 29
14 46 5 16 -9 25 -8 36 1 20 16 18 57 -2 55 -9 0 -19 4 -21 10 -5 16 29 28 37
14 5 -8 9 -6 14 6 10 25 2 27 -38 7 -36 -17 -37 -16 -52 5 -15 22 -54 31 -54
12z"/>
<path d="M410 325 l0 -125 29 0 c29 0 30 2 33 53 l3 52 48 3 c38 3 47 7 47 22
0 15 -9 19 -47 22 -41 3 -48 6 -51 26 -3 20 0 22 47 22 48 0 51 2 51 25 0 25
-1 25 -80 25 l-80 0 0 -125z"/>
<path d="M630 325 l0 -125 30 0 c29 0 30 2 30 45 0 40 2 45 23 45 17 0 28 -11
45 -45 19 -39 26 -45 53 -45 27 0 30 3 23 23 -10 33 -32 75 -44 82 -6 4 -3 16
10 32 25 33 25 54 -1 87 -19 24 -26 26 -95 26 l-74 0 0 -125z m118 48 c-2 -22
-9 -29 -30 -31 -25 -3 -28 0 -28 27 0 28 3 31 31 31 27 0 30 -3 27 -27z"/>
<path d="M867 443 c-4 -3 -7 -60 -7 -125 l0 -118 30 0 30 0 0 125 c0 124 0
125 -23 125 -13 0 -27 -3 -30 -7z"/>
<path d="M1032 437 c-74 -42 -80 -174 -9 -217 32 -20 99 -26 145 -14 20 6 22
13 22 68 l0 61 -40 0 c-31 0 -40 -4 -40 -17 0 -10 7 -18 15 -18 10 0 15 -10
15 -30 0 -28 -3 -30 -35 -30 -69 0 -101 85 -53 145 20 26 25 27 80 22 45 -4
58 -2 58 9 0 7 -9 18 -19 24 -27 14 -111 12 -139 -3z"/>
<path d="M1260 325 l0 -125 25 0 c23 0 25 4 25 45 0 45 0 45 34 45 76 0 112
40 95 106 -11 39 -43 54 -119 54 l-60 0 0 -125z m124 63 c16 -26 -4 -52 -43
-56 -30 -3 -31 -2 -31 38 0 40 1 41 31 38 18 -2 37 -11 43 -20z"/>
<path d="M265 374 c-18 -18 -18 -20 -5 -45 20 -36 68 -10 55 30 -8 26 -31 33
-50 15z"/>
<path d="M152 308 c-28 -28 3 -83 33 -58 18 15 19 42 3 58 -15 15 -21 15 -36
0z"/>
<path d="M224 306 c-11 -29 1 -51 26 -51 31 0 39 31 13 50 -23 18 -32 18 -39
1z"/>
<path d="M312 304 c-18 -20 -11 -48 12 -52 26 -5 40 12 32 42 -7 29 -24 33
-44 10z"/>
<path d="M110 235 c-18 -21 -3 -55 25 -55 12 0 26 7 29 16 8 21 9 20 -18 37
-21 14 -26 14 -36 2z"/>
<path d="M270 235 c-19 -23 -8 -50 20 -50 18 0 26 6 28 22 4 29 -30 49 -48 28z"/>
<path d="M183 224 c-8 -22 9 -49 33 -49 30 0 27 59 -4 63 -14 2 -25 -3 -29
-14z"/>
<path d="M151 161 c-18 -12 -5 -51 18 -51 10 0 25 7 32 16 11 14 10 18 -6 30
-22 16 -25 17 -44 5z"/>
<path d="M230 160 c-18 -11 -3 -43 23 -48 22 -4 44 37 26 49 -18 11 -30 11
-49 -1z"/>
<path d="M415 146 c-23 -17 -14 -43 20 -56 36 -14 32 -34 -6 -26 -22 4 -29 2
-26 -7 2 -7 21 -12 43 -12 35 0 39 3 42 26 3 22 -3 29 -30 40 l-33 13 33 3
c37 5 42 18 10 27 -31 8 -32 8 -53 -8z"/>
<path d="M880 147 c-52 -26 -29 -107 30 -107 33 0 60 28 60 62 0 43 -48 66
-90 45z m58 -43 c4 -29 -23 -51 -43 -34 -16 13 -20 42 -8 54 14 14 48 1 51
-20z"/>
<path d="M1245 146 c-23 -17 -14 -43 20 -56 36 -14 32 -34 -6 -26 -22 4 -29 2
-26 -7 2 -7 21 -12 43 -12 35 0 39 3 42 26 3 22 -3 29 -30 40 l-33 13 33 3
c37 5 42 18 10 27 -31 8 -32 8 -53 -8z"/>
<path d="M520 114 c0 -50 15 -74 48 -74 39 0 52 17 52 67 0 31 -4 43 -14 43
-10 0 -16 -14 -18 -42 -2 -30 -8 -43 -18 -43 -10 0 -16 13 -18 43 -4 54 -32
60 -32 6z"/>
<path d="M650 95 l0 -55 33 0 c45 0 77 25 77 59 0 38 -17 51 -67 51 l-43 0 0
-55z m78 9 c3 -23 -21 -49 -38 -39 -5 3 -10 20 -10 36 0 26 3 30 23 27 13 -2
23 -11 25 -24z"/>
<path d="M990 111 c0 -58 34 -84 84 -65 22 9 23 104 1 104 -11 0 -15 -12 -15
-45 0 -32 -4 -45 -14 -45 -17 0 -26 22 -26 61 0 19 -5 29 -15 29 -11 0 -15
-11 -15 -39z"/>
<path d="M1122 98 l3 -53 43 -3 c45 -3 60 14 17 20 -32 4 -37 22 -7 26 27 4
30 22 3 22 -11 0 -23 5 -26 10 -3 6 5 10 19 10 14 0 28 5 31 10 4 6 -12 10
-40 10 l-46 0 3 -52z"/>
<path d="M1340 140 c0 -5 9 -10 20 -10 17 0 20 -7 20 -46 0 -59 24 -55 28 4 2
28 8 42 17 42 8 0 17 5 20 10 4 6 -15 10 -49 10 -31 0 -56 -4 -56 -10z"/>
<path d="M194 96 c-15 -12 -16 -16 -5 -30 18 -22 38 -20 51 4 14 27 -19 46
-46 26z"/>
<path d="M785 90 c-4 -6 5 -10 19 -10 14 0 26 5 26 10 0 6 -9 10 -19 10 -11 0
-23 -4 -26 -10z"/>
</g>
</svg>
